<mxfile host="app.diagrams.net" agent="Mozilla/5.0 (Windows NT 10.0; Win64; x64) AppleWebKit/537.36 (KHTML, like Gecko) Chrome/136.0.0.0 Safari/537.36" version="27.0.9">
  <diagram id="07fea595-8f29-1299-0266-81d95cde20df" name="Page-1">
    <mxGraphModel dx="-158" dy="356" grid="1" gridSize="10" guides="1" tooltips="1" connect="1" arrows="1" fold="1" page="1" pageScale="1" pageWidth="1169" pageHeight="827" background="none" math="0" shadow="0">
      <root>
        <mxCell id="0" />
        <mxCell id="1" parent="0" />
        <mxCell id="_li1lUW6P8k7EiyVsJMC-752" value="" style="html=1;shadow=0;dashed=0;fillColor=#343A40;strokeColor=none;fontSize=16;fontColor=#ffffff;align=left;spacing=15;" vertex="1" parent="1">
          <mxGeometry x="2338" y="830" width="1150" height="60" as="geometry" />
        </mxCell>
        <mxCell id="_li1lUW6P8k7EiyVsJMC-753" value="" style="swimlane;shape=mxgraph.bootstrap.anchor;strokeColor=none;fillColor=none;fontColor=#0085FC;fontStyle=0;childLayout=stackLayout;horizontal=0;startSize=0;horizontalStack=1;resizeParent=1;resizeParentMax=0;resizeLast=0;collapsible=0;marginBottom=0;whiteSpace=wrap;html=1;resizeWidth=0;" vertex="1" parent="_li1lUW6P8k7EiyVsJMC-752">
          <mxGeometry y="10" width="350" height="40" as="geometry" />
        </mxCell>
        <mxCell id="_li1lUW6P8k7EiyVsJMC-754" value="Navbar" style="text;strokeColor=none;align=left;verticalAlign=middle;spacingLeft=15;spacingRight=10;points=[[0,0.5],[1,0.5]];portConstraint=eastwest;rotatable=0;whiteSpace=wrap;html=1;fillColor=none;fontColor=#ffffff;fontSize=16;" vertex="1" parent="_li1lUW6P8k7EiyVsJMC-753">
          <mxGeometry width="80" height="40" as="geometry" />
        </mxCell>
        <mxCell id="_li1lUW6P8k7EiyVsJMC-755" value="Home" style="text;strokeColor=none;align=center;verticalAlign=middle;spacingLeft=10;spacingRight=10;points=[[0,0.5],[1,0.5]];portConstraint=eastwest;rotatable=0;whiteSpace=wrap;html=1;fillColor=none;fontColor=#ffffff;fontSize=14;" vertex="1" parent="_li1lUW6P8k7EiyVsJMC-753">
          <mxGeometry x="80" width="60" height="40" as="geometry" />
        </mxCell>
        <mxCell id="_li1lUW6P8k7EiyVsJMC-756" value="Features" style="text;strokeColor=none;align=center;verticalAlign=middle;spacingLeft=10;spacingRight=10;points=[[0,0.5],[1,0.5]];portConstraint=eastwest;rotatable=0;whiteSpace=wrap;html=1;fillColor=none;fontColor=#9A9DA0;fontSize=14;" vertex="1" parent="_li1lUW6P8k7EiyVsJMC-753">
          <mxGeometry x="140" width="80" height="40" as="geometry" />
        </mxCell>
        <mxCell id="_li1lUW6P8k7EiyVsJMC-757" value="Pricing" style="text;strokeColor=none;align=left;verticalAlign=middle;spacingLeft=5;spacingRight=10;points=[[0,0.5],[1,0.5]];portConstraint=eastwest;rotatable=0;whiteSpace=wrap;html=1;fillColor=none;fontColor=#9A9DA0;fontSize=14;" vertex="1" parent="_li1lUW6P8k7EiyVsJMC-753">
          <mxGeometry x="220" width="70" height="40" as="geometry" />
        </mxCell>
        <mxCell id="_li1lUW6P8k7EiyVsJMC-758" value="About" style="text;strokeColor=none;align=center;verticalAlign=middle;spacingLeft=10;spacingRight=10;points=[[0,0.5],[1,0.5]];portConstraint=eastwest;rotatable=0;whiteSpace=wrap;html=1;fillColor=none;fontColor=#9A9DA0;fontSize=14;" vertex="1" parent="_li1lUW6P8k7EiyVsJMC-753">
          <mxGeometry x="290" width="60" height="40" as="geometry" />
        </mxCell>
        <mxCell id="_li1lUW6P8k7EiyVsJMC-759" value="Search" style="html=1;shadow=0;dashed=0;shape=mxgraph.bootstrap.rrect;rSize=5;fontSize=14;fontColor=#1CA5B8;strokeColor=#1CA5B8;fillColor=none;" vertex="1" parent="_li1lUW6P8k7EiyVsJMC-752">
          <mxGeometry x="1" width="70" height="40" relative="1" as="geometry">
            <mxPoint x="-80" y="10" as="offset" />
          </mxGeometry>
        </mxCell>
        <mxCell id="_li1lUW6P8k7EiyVsJMC-760" value="Search" style="html=1;shadow=0;dashed=0;shape=mxgraph.bootstrap.rrect;rSize=5;fontSize=14;fontColor=#6C767D;strokeColor=#CED4DA;fillColor=#ffffff;align=left;spacing=10;" vertex="1" parent="_li1lUW6P8k7EiyVsJMC-752">
          <mxGeometry x="1" width="180" height="40" relative="1" as="geometry">
            <mxPoint x="-270" y="10" as="offset" />
          </mxGeometry>
        </mxCell>
        <mxCell id="_li1lUW6P8k7EiyVsJMC-773" value="" style="group" vertex="1" connectable="0" parent="1">
          <mxGeometry x="2360" y="1040" width="690" height="393" as="geometry" />
        </mxCell>
        <mxCell id="_li1lUW6P8k7EiyVsJMC-762" value="" style="group" vertex="1" connectable="0" parent="_li1lUW6P8k7EiyVsJMC-773">
          <mxGeometry width="650" height="326.95" as="geometry" />
        </mxCell>
        <mxCell id="723" value="" style="whiteSpace=wrap;fillColor=#12AAB5;gradientColor=none;gradientDirection=east;strokeColor=none;html=1;fontColor=#23445d;" parent="_li1lUW6P8k7EiyVsJMC-762" vertex="1">
          <mxGeometry x="61.904761904761905" y="258.3413212435234" width="74.28571428571428" height="55.056347150259064" as="geometry" />
        </mxCell>
        <mxCell id="724" value="" style="whiteSpace=wrap;fillColor=#12AAB5;gradientColor=none;gradientDirection=east;strokeColor=none;html=1;fontColor=#23445d;" parent="_li1lUW6P8k7EiyVsJMC-762" vertex="1">
          <mxGeometry x="185.71428571428572" y="292.22215025906735" width="74.28571428571428" height="21.17551813471512" as="geometry" />
        </mxCell>
        <mxCell id="725" value="" style="whiteSpace=wrap;fillColor=#12AAB5;gradientColor=none;gradientDirection=east;strokeColor=none;html=1;fontColor=#23445d;" parent="_li1lUW6P8k7EiyVsJMC-762" vertex="1">
          <mxGeometry x="309.5238095238095" y="271.0466321243523" width="74.28571428571428" height="42.351036269430054" as="geometry" />
        </mxCell>
        <mxCell id="726" value="" style="whiteSpace=wrap;fillColor=#12AAB5;gradientColor=none;gradientDirection=east;strokeColor=none;html=1;fontColor=#23445d;" parent="_li1lUW6P8k7EiyVsJMC-762" vertex="1">
          <mxGeometry x="433.3333333333333" y="241.40090673575128" width="74.28571428571428" height="71.99676165803109" as="geometry" />
        </mxCell>
        <mxCell id="727" value="" style="edgeStyle=none;html=1;fontColor=#000000;strokeWidth=3;strokeColor=#000000;" parent="_li1lUW6P8k7EiyVsJMC-762" edge="1">
          <mxGeometry width="100" height="100" relative="1" as="geometry">
            <mxPoint x="24.761904761904763" y="313.3976683937824" as="sourcePoint" />
            <mxPoint x="24.761904761904763" y="110.11269430051813" as="targetPoint" />
          </mxGeometry>
        </mxCell>
        <mxCell id="728" value="" style="whiteSpace=wrap;fillColor=#F08705;gradientColor=none;gradientDirection=east;strokeColor=none;html=1;fontColor=#23445d;" parent="_li1lUW6P8k7EiyVsJMC-762" vertex="1">
          <mxGeometry x="61.904761904761905" y="203.28497409326434" width="74.28571428571428" height="55.056347150259064" as="geometry" />
        </mxCell>
        <mxCell id="729" value="" style="whiteSpace=wrap;fillColor=#E85642;gradientColor=none;gradientDirection=east;strokeColor=none;html=1;fontColor=#23445d;" parent="_li1lUW6P8k7EiyVsJMC-762" vertex="1">
          <mxGeometry x="61.904761904761905" y="148.22862694300537" width="74.28571428571428" height="55.056347150259064" as="geometry" />
        </mxCell>
        <mxCell id="730" value="" style="whiteSpace=wrap;fillColor=#F08705;gradientColor=none;gradientDirection=east;strokeColor=none;html=1;fontColor=#23445d;" parent="_li1lUW6P8k7EiyVsJMC-762" vertex="1">
          <mxGeometry x="185.71428571428572" y="224.46049222797916" width="74.28571428571428" height="67.761658031088" as="geometry" />
        </mxCell>
        <mxCell id="731" value="" style="whiteSpace=wrap;fillColor=#E85642;gradientColor=none;gradientDirection=east;strokeColor=none;html=1;fontColor=#23445d;" parent="_li1lUW6P8k7EiyVsJMC-762" vertex="1">
          <mxGeometry x="185.71428571428572" y="211.75518134715026" width="74.28571428571428" height="12.705310880829014" as="geometry" />
        </mxCell>
        <mxCell id="732" value="" style="whiteSpace=wrap;fillColor=#F08705;gradientColor=none;gradientDirection=east;strokeColor=none;html=1;fontColor=#23445d;" parent="_li1lUW6P8k7EiyVsJMC-762" vertex="1">
          <mxGeometry x="309.5238095238095" y="203.28497409326422" width="74.28571428571428" height="67.76165803108807" as="geometry" />
        </mxCell>
        <mxCell id="733" value="" style="whiteSpace=wrap;fillColor=#E85642;gradientColor=none;gradientDirection=east;strokeColor=none;html=1;fontColor=#23445d;" parent="_li1lUW6P8k7EiyVsJMC-762" vertex="1">
          <mxGeometry x="309.5238095238095" y="127.05310880829015" width="74.28571428571428" height="76.23186528497409" as="geometry" />
        </mxCell>
        <mxCell id="734" value="" style="edgeStyle=none;html=1;fontColor=#000000;strokeWidth=3;strokeColor=#000000;" parent="_li1lUW6P8k7EiyVsJMC-762" edge="1">
          <mxGeometry width="100" height="100" relative="1" as="geometry">
            <mxPoint x="24.761904761904763" y="313.3976683937824" as="sourcePoint" />
            <mxPoint x="594.2857142857142" y="313.3976683937824" as="targetPoint" />
          </mxGeometry>
        </mxCell>
        <mxCell id="735" value="Parameter x" style="text;spacingTop=-5;html=1;fontSize=18;fontStyle=0;points=[];strokeColor=none;" parent="_li1lUW6P8k7EiyVsJMC-762" vertex="1">
          <mxGeometry x="600.4761904761906" y="308.3155440414507" width="49.523809523809526" height="8.47020725388601" as="geometry" />
        </mxCell>
        <mxCell id="736" value="x1" style="text;spacingTop=-5;align=center;verticalAlign=middle;fontStyle=0;html=1;fontSize=18;points=[];strokeColor=none;" parent="_li1lUW6P8k7EiyVsJMC-762" vertex="1">
          <mxGeometry x="61.904761904761905" y="314.24468911917097" width="74.28571428571428" height="12.705310880829014" as="geometry" />
        </mxCell>
        <mxCell id="737" value="x2" style="text;spacingTop=-5;align=center;verticalAlign=middle;fontStyle=0;html=1;fontSize=18;points=[];strokeColor=none;" parent="_li1lUW6P8k7EiyVsJMC-762" vertex="1">
          <mxGeometry x="185.71428571428572" y="314.24468911917097" width="74.28571428571428" height="12.705310880829014" as="geometry" />
        </mxCell>
        <mxCell id="738" value="x3" style="text;spacingTop=-5;align=center;verticalAlign=middle;fontStyle=0;html=1;fontSize=18;points=[];strokeColor=none;" parent="_li1lUW6P8k7EiyVsJMC-762" vertex="1">
          <mxGeometry x="309.5238095238095" y="314.24468911917097" width="74.28571428571428" height="12.705310880829014" as="geometry" />
        </mxCell>
        <mxCell id="739" value="" style="whiteSpace=wrap;fillColor=#12AAB5;gradientColor=none;gradientDirection=east;strokeColor=none;html=1;fontColor=#23445d;" parent="_li1lUW6P8k7EiyVsJMC-762" vertex="1">
          <mxGeometry x="532.3809523809524" y="59.291450777202066" width="21.66666666666674" height="12.70531088082911" as="geometry" />
        </mxCell>
        <mxCell id="740" value="" style="whiteSpace=wrap;fillColor=#F08705;gradientColor=none;gradientDirection=east;strokeColor=none;html=1;fontColor=#23445d;" parent="_li1lUW6P8k7EiyVsJMC-762" vertex="1">
          <mxGeometry x="532.3809523809521" y="42.351036269430004" width="21.66666666666674" height="12.70531088082911" as="geometry" />
        </mxCell>
        <mxCell id="741" value="" style="whiteSpace=wrap;fillColor=#E85642;gradientColor=none;gradientDirection=east;strokeColor=none;html=1;fontColor=#23445d;" parent="_li1lUW6P8k7EiyVsJMC-762" vertex="1">
          <mxGeometry x="532.3809523809524" y="25.410621761658028" width="21.66666666666674" height="12.705310880829062" as="geometry" />
        </mxCell>
        <mxCell id="742" value="Type 1" style="text;spacingTop=-5;html=1;points=[];fontSize=15;" parent="_li1lUW6P8k7EiyVsJMC-762" vertex="1">
          <mxGeometry x="557.1428571428571" y="27.528173575129582" width="49.523809523809526" height="8.47020725388601" as="geometry" />
        </mxCell>
        <mxCell id="743" value="Type 2" style="text;spacingTop=-5;html=1;points=[];fontSize=15;" parent="_li1lUW6P8k7EiyVsJMC-762" vertex="1">
          <mxGeometry x="557.1428571428571" y="44.4685880829016" width="49.523809523809526" height="8.47020725388601" as="geometry" />
        </mxCell>
        <mxCell id="744" value="Type 3" style="text;spacingTop=-5;html=1;points=[];fontSize=15;" parent="_li1lUW6P8k7EiyVsJMC-762" vertex="1">
          <mxGeometry x="557.1428571428571" y="61.409002590673616" width="49.523809523809526" height="8.47020725388601" as="geometry" />
        </mxCell>
        <mxCell id="745" value="Parameter y" style="text;spacingTop=-5;html=1;fontSize=18;fontStyle=0;points=[]" parent="_li1lUW6P8k7EiyVsJMC-762" vertex="1">
          <mxGeometry y="97.83089378238341" width="49.523809523809526" height="8.47020725388601" as="geometry" />
        </mxCell>
        <mxCell id="746" value="y1" style="text;spacingTop=-5;align=center;verticalAlign=middle;fontStyle=0;html=1;fontSize=18;points=[]" parent="_li1lUW6P8k7EiyVsJMC-762" vertex="1">
          <mxGeometry x="4.9523809523809526" y="258.3413212435234" width="18.57142857142857" height="55.05634715025897" as="geometry" />
        </mxCell>
        <mxCell id="747" value="y2" style="text;spacingTop=-5;align=center;verticalAlign=middle;fontStyle=0;html=1;fontSize=18;points=[]" parent="_li1lUW6P8k7EiyVsJMC-762" vertex="1">
          <mxGeometry x="4.9523809523809526" y="203.28497409326422" width="18.57142857142857" height="55.05634715025897" as="geometry" />
        </mxCell>
        <mxCell id="748" value="y3" style="text;spacingTop=-5;align=center;verticalAlign=middle;fontStyle=0;html=1;fontSize=18;points=[]" parent="_li1lUW6P8k7EiyVsJMC-762" vertex="1">
          <mxGeometry x="4.9523809523809526" y="148.22862694300517" width="18.57142857142857" height="55.05634715025897" as="geometry" />
        </mxCell>
        <mxCell id="749" value="&lt;font style=&quot;font-size: 30px;&quot;&gt;Diagram title&lt;/font&gt;" style="text;spacingTop=-5;align=center;verticalAlign=middle;fontSize=30;fontStyle=1;html=1;points=[]" parent="_li1lUW6P8k7EiyVsJMC-762" vertex="1">
          <mxGeometry x="24.761904761904763" width="501.42857142857144" height="19.057966321243523" as="geometry" />
        </mxCell>
        <mxCell id="750" value="" style="whiteSpace=wrap;fillColor=#F08705;gradientColor=none;gradientDirection=east;strokeColor=none;html=1;fontColor=#23445d;" parent="_li1lUW6P8k7EiyVsJMC-762" vertex="1">
          <mxGeometry x="433.3333333333333" y="220.22538860103626" width="74.28571428571428" height="21.175518134715027" as="geometry" />
        </mxCell>
        <mxCell id="751" value="" style="whiteSpace=wrap;fillColor=#E85642;gradientColor=none;gradientDirection=east;strokeColor=none;html=1;fontColor=#23445d;" parent="_li1lUW6P8k7EiyVsJMC-762" vertex="1">
          <mxGeometry x="433.3333333333333" y="173.6392487046632" width="74.28571428571428" height="46.586139896373055" as="geometry" />
        </mxCell>
        <mxCell id="752" value="x4" style="text;spacingTop=-5;align=center;verticalAlign=middle;fontStyle=0;html=1;fontSize=18;points=[];strokeColor=none;" parent="_li1lUW6P8k7EiyVsJMC-762" vertex="1">
          <mxGeometry x="433.3333333333333" y="314.24468911917097" width="74.28571428571428" height="12.705310880829014" as="geometry" />
        </mxCell>
        <mxCell id="_li1lUW6P8k7EiyVsJMC-766" value="&lt;b&gt;&lt;font style=&quot;font-size: 30px;&quot;&gt;Next =&amp;gt;&lt;/font&gt;&lt;/b&gt;" style="fillColor=none;strokeColor=none;html=1;fontColor=#0057D8;align=left;fontSize=20;sketch=0;" vertex="1" parent="_li1lUW6P8k7EiyVsJMC-773">
          <mxGeometry x="565" y="360" width="125" height="33" as="geometry" />
        </mxCell>
        <mxCell id="_li1lUW6P8k7EiyVsJMC-767" value="" style="html=1;shadow=0;dashed=0;shape=mxgraph.atlassian.checkbox;fillColor=#008465;strokeColor=none;html=1;sketch=0;fontSize=20;" vertex="1" parent="_li1lUW6P8k7EiyVsJMC-773">
          <mxGeometry x="540" y="369" width="14" height="14" as="geometry" />
        </mxCell>
        <mxCell id="_li1lUW6P8k7EiyVsJMC-768" value="&lt;b&gt;&lt;font style=&quot;font-size: 30px;&quot;&gt;&amp;lt;= Previous&lt;/font&gt;&lt;/b&gt;" style="fillColor=none;strokeColor=none;html=1;fontColor=#0057D8;align=left;fontSize=20;sketch=0;" vertex="1" parent="_li1lUW6P8k7EiyVsJMC-773">
          <mxGeometry y="359.5" width="125" height="33" as="geometry" />
        </mxCell>
        <mxCell id="_li1lUW6P8k7EiyVsJMC-774" value="" style="group" vertex="1" connectable="0" parent="1">
          <mxGeometry x="2360" y="940" width="276" height="17" as="geometry" />
        </mxCell>
        <mxCell id="_li1lUW6P8k7EiyVsJMC-770" value="Step 1" style="shape=step;perimeter=stepPerimeter;fixedSize=1;points=[];whiteSpace=wrap;html=1;" vertex="1" parent="_li1lUW6P8k7EiyVsJMC-774">
          <mxGeometry width="100" height="17" as="geometry" />
        </mxCell>
        <mxCell id="_li1lUW6P8k7EiyVsJMC-771" value="Step 2" style="shape=step;perimeter=stepPerimeter;fixedSize=1;points=[];whiteSpace=wrap;html=1;" vertex="1" parent="_li1lUW6P8k7EiyVsJMC-774">
          <mxGeometry x="88" width="100" height="17" as="geometry" />
        </mxCell>
        <mxCell id="_li1lUW6P8k7EiyVsJMC-772" value="Step 3" style="shape=step;perimeter=stepPerimeter;fixedSize=1;points=[];whiteSpace=wrap;html=1;" vertex="1" parent="_li1lUW6P8k7EiyVsJMC-774">
          <mxGeometry x="176" width="100" height="17" as="geometry" />
        </mxCell>
      </root>
    </mxGraphModel>
  </diagram>
</mxfile>
